<svg width="500" height="500" viewBox="0 0 500 500" fill="none" xmlns="http://www.w3.org/2000/svg">
<g clip-path="url(#clip0_422_34)">
<path fill-rule="evenodd" clip-rule="evenodd" d="M354.453 378.026L470.062 177.785L439.866 125.485L335.865 305.62L324.257 325.726L282.584 253.551V253.549L258.872 212.476L208.646 125.485H231.863H296.133L263.999 181.143L294.193 233.441L356.523 125.485L386.716 73.1832H326.329H178.451L118.06 73.1856L148.255 125.485L222.194 253.549V253.551L294.06 378.026L324.255 430.328L354.453 378.026Z" fill="#CB3C3A"/>
<path fill-rule="evenodd" clip-rule="evenodd" d="M180.524 325.727L65.3344 126.213L35.1387 178.512L150.328 378.026L180.524 430.328L210.717 378.025L240.78 325.954L210.587 273.656L180.524 325.727Z" fill="#CB3C3A"/>
</g>
<defs>
<clipPath id="clip0_422_34">
<rect width="500" height="500" fill="white"/>
</clipPath>
</defs>
</svg>
