<svg fill="none" height="173" viewBox="0 0 379 173" width="379" xmlns="http://www.w3.org/2000/svg"><g clip-rule="evenodd" fill-rule="evenodd"><g fill="#1b2a52"><path d="m23.4202 123.517v-.073c0-1.327-.2276-2.538-.682-3.631-.4547-1.094-1.1058-2.034-1.9536-2.82-.8476-.786-1.8797-1.394-3.096-1.824-1.2164-.43-2.5986-.646-4.1468-.646h-10.5418v25.802h5.6764v-7.74h4.3126c1.4496 0 2.8074-.191 4.0725-.572 1.2657-.38 2.3715-.952 3.318-1.714.9459-.761 1.6892-1.707 2.2297-2.838.5406-1.13.811-2.445.811-3.944zm-5.7503.111c0 1.106-.3932 2.033-1.1795 2.783-.7861.749-1.8919 1.124-3.3171 1.124h-4.4969v-7.888h4.386c1.4256 0 2.5495.332 3.3727.995.8232.664 1.2348 1.634 1.2348 2.912zm32.682 16.697-6.3028-9.215c1.646-.614 2.9789-1.579 3.9991-2.893 1.0196-1.315 1.5298-3.017 1.5298-5.105v-.074c0-2.678-.8543-4.767-2.5622-6.266s-4.0975-2.249-7.1691-2.249h-11.7947v25.802h5.6764v-8.256h4.4598l5.5292 8.256zm-6.5239-16.918c0 1.105-.3751 1.99-1.1245 2.653-.7492.664-1.8247.996-3.225.996h-5.7501v-7.409h5.6395c1.4004 0 2.494.307 3.2803.921.786.615 1.1798 1.536 1.1798 2.765zm30.9121 16.918v-5.049h-14.0069v-5.419h12.1641v-5.05h-12.1641v-5.234h13.8226v-5.05h-19.425v25.802zm24.167-7.63v-.073c0-1.131-.1783-2.101-.5346-2.913-.3563-.811-.8906-1.517-1.5911-2.119-.7004-.602-1.5664-1.118-2.5863-1.548-1.0196-.43-2.1867-.817-3.4954-1.161-1.1058-.295-2.0214-.553-2.7522-.774-.7248-.221-1.296-.455-1.72-.7-.4176-.246-.7067-.523-.8663-.83s-.2395-.669-.2395-1.087v-.074c0-.639.2763-1.173.8294-1.603.5527-.43 1.3822-.645 2.488-.645s2.2113.227 3.3171.681c1.1058.455 2.2365 1.076 3.391 1.862l2.9489-4.276c-1.3269-1.056-2.783-1.867-4.3676-2.432-1.5851-.565-3.3236-.848-5.216-.848-1.3269 0-2.5433.184-3.6425.553-1.0996.368-2.0523.897-2.8446 1.585s-1.4066 1.505-1.8488 2.451c-.4362.946-.6573 2.009-.6573 3.188v.074c0 1.278.2024 2.347.608 3.207.4054.86.9825 1.579 1.7201 2.156.737.577 1.6404 1.063 2.6969 1.456 1.0627.393 2.2422.749 3.5506 1.069 1.0812.27 1.9656.528 2.6419.774.6755.246 1.2036.491 1.5905.737.381.246.6393.51.7742.793.1355.282.2029.608.2029.977v.073c0 .762-.3257 1.358-.9771 1.788-.6508.43-1.5661.645-2.7456.645-1.4746 0-2.8318-.283-4.0731-.848-1.2407-.565-2.4508-1.327-3.6306-2.285l-3.354 4.017c1.548 1.401 3.2681 2.439 5.1602 3.115 1.8919.676 3.8208 1.014 5.7869 1.014 1.4006 0 2.6782-.179 3.8271-.535s2.1441-.872 2.9735-1.548c.8292-.676 1.4743-1.511 1.9412-2.506.4606-.995.6942-2.132.6942-3.41zm24.9049-12.937v-5.235h-21.379v5.235h7.851v20.567h5.676v-20.567zm31.059 7.666v-.074c0-1.842-.338-3.568-1.014-5.178-.675-1.61-1.621-3.01-2.838-4.202-1.216-1.192-2.66-2.138-4.33-2.838-1.672-.701-3.502-1.051-5.493-1.051-1.99 0-3.827.35-5.51 1.051-1.683.7-3.133 1.658-4.349 2.875-1.217 1.216-2.169 2.629-2.857 4.239-.688 1.609-1.032 3.335-1.032 5.178v.074c0 1.843.337 3.569 1.013 5.179.676 1.609 1.622 3.01 2.838 4.202 1.217 1.191 2.661 2.137 4.331 2.838 1.671.7 3.502 1.05 5.493 1.05 1.99 0 3.827-.35 5.51-1.05 1.683-.701 3.133-1.659 4.349-2.875 1.217-1.217 2.169-2.63 2.857-4.239s1.032-3.336 1.032-5.179zm-5.934.074c0 1.106-.191 2.144-.572 3.115-.381.97-.909 1.824-1.585 2.562-.676.737-1.492 1.314-2.451 1.732-.958.418-2.002.626-3.133.626-1.155 0-2.205-.215-3.151-.645s-1.77-1.014-2.47-1.751-1.241-1.597-1.622-2.58-.571-2.027-.571-3.133v-.074c0-1.105.19-2.144.571-3.114.381-.971.91-1.825 1.585-2.562.676-.737 1.487-1.314 2.433-1.732s1.996-.627 3.152-.627c1.13 0 2.174.215 3.133.645.958.43 1.787 1.014 2.488 1.751.7.738 1.24 1.597 1.621 2.58s.572 2.028.572 3.133zm34.34 12.827v-25.802h-5.602v15.887l-12.09-15.887h-5.235v25.802h5.603v-16.402l12.496 16.402zm16.722-8.736v-5.381h-11.353v5.381zm42.522-17.066h-5.934l-5.345 17.472-5.786-17.545h-4.866l-5.787 17.545-5.344-17.472h-6.082l8.809 25.986h4.939l5.824-16.881 5.824 16.881h4.939zm24.241 25.802v-5.049h-14.007v-5.419h12.164v-5.05h-12.164v-5.234h13.823v-5.05h-19.425v25.802zm27.816 0-6.302-9.215c1.646-.614 2.979-1.579 3.999-2.893 1.019-1.315 1.529-3.017 1.529-5.105v-.074c0-2.678-.854-4.767-2.562-6.266s-4.097-2.249-7.169-2.249h-11.795v25.802h5.677v-8.256h4.459l5.53 8.256zm-6.524-16.918c0 1.105-.375 1.99-1.124 2.653-.75.664-1.825.996-3.225.996h-5.75v-7.409h5.639c1.401 0 2.494.307 3.28.921.787.615 1.18 1.536 1.18 2.765zm34.23 16.918v-25.802h-5.603v15.887l-12.09-15.887h-5.234v25.802h5.603v-16.402l12.495 16.402zm26.231 0v-5.049h-14.007v-5.419h12.164v-5.05h-12.164v-5.234h13.823v-5.05h-19.425v25.802zm27.816 0-6.302-9.215c1.646-.614 2.978-1.579 3.999-2.893 1.019-1.315 1.529-3.017 1.529-5.105v-.074c0-2.678-.854-4.767-2.562-6.266s-4.097-2.249-7.169-2.249h-11.795v25.802h5.677v-8.256h4.459l5.53 8.256zm-6.524-16.918c0 1.105-.375 1.99-1.124 2.653-.75.664-1.825.996-3.225.996h-5.75v-7.409h5.639c1.401 0 2.494.307 3.281.921.786.615 1.179 1.536 1.179 2.765z"/><path d="m118.866 170.088h3.99l6.296-15.63h-4.722l-3.525 9.821-3.525-9.821h-4.811zm15.991-.111h12.593v-3.658h-8.337v-2.461h7.449v-3.392h-7.449v-2.35h8.225v-3.658h-12.481zm18.983 0h4.257v-8.514l6.629 8.514h3.769v-15.519h-4.256v8.203l-6.386-8.203h-4.013zm25.391 0h4.301v-11.75h4.656v-3.769h-13.613v3.769h4.656zm22.022.288c4.411 0 7.271-2.195 7.271-7.205v-8.602h-4.367v8.735c0 2.173-1.131 3.193-2.86 3.193s-2.86-1.065-2.86-3.304v-8.624h-4.368v8.713c0 4.855 2.772 7.094 7.184 7.094zm14.017-.288h4.301v-4.7h1.885l3.126 4.7h4.966l-3.702-5.41c1.928-.82 3.192-2.394 3.192-4.766v-.044c0-1.53-.465-2.727-1.375-3.614-1.042-1.064-2.682-1.685-5.054-1.685h-7.339zm4.301-8.07v-3.725h2.816c1.441 0 2.328.621 2.328 1.841v.044c0 1.131-.843 1.84-2.306 1.84zm15.836 8.07h12.593v-3.658h-8.336v-2.461h7.449v-3.392h-7.449v-2.35h8.225v-3.658h-12.482zm25.081.266c3.769 0 6.274-1.884 6.274-5.055v-.044c0-2.904-2.217-4.057-5.786-4.833-2.151-.488-2.683-.798-2.683-1.508v-.044c0-.555.51-.998 1.552-.998 1.374 0 2.926.532 4.345 1.53l2.151-3.037c-1.685-1.352-3.747-2.062-6.385-2.062-3.725 0-6.008 2.084-6.008 4.966v.044c0 3.193 2.549 4.124 5.852 4.878 2.107.487 2.617.842 2.617 1.485v.044c0 .666-.621 1.065-1.774 1.065-1.796 0-3.503-.643-5.032-1.863l-2.395 2.86c1.906 1.707 4.523 2.572 7.272 2.572z"/><path d="m3 161.53h98.376v3.658h-98.376zm274.955 0h98.376v3.658h-98.376z"/></g><path d="m215.74 81.0398 29.596-51.2617-7.73-13.3889-26.625 46.1146-2.971 5.1471-10.668-18.4768v-.0005l-6.071-10.5146-12.858-22.2698h5.944 16.453l-8.226 14.2486 7.729 13.3883 15.957-27.6369 7.729-13.3892h-15.459-37.857l-15.46.0006 7.73 13.3886 18.929 32.7844v.0005l18.397 31.8657 7.73 13.3892z" fill="#cb3c3a"/><path d="m171.214 67.6512-29.488-51.0755-7.731 13.3886 29.489 51.0755 7.73 13.3892 7.73-13.3895 7.696-13.3302-7.73-13.3883z" fill="#cb3c3a"/></g></svg>